name D:\school\WTK\thesis\model\3dpredictsim\Results\MidTarsalJoint\Fal_s1_bCst_PF_Gefen2002_ls150_MT_nl_Gefen2002_MTP_T1_spx10_PIM_w1e+04_w1e+04_ig23.mot
datacolumns 128
datarows 4
range 1.14894437 1.18341270
endheader
time	pelvis_tilt	pelvis_list	pelvis_rotation	pelvis_tx	pelvis_ty	pelvis_tz	hip_flexion_l	hip_adduction_l	hip_rotation_l	hip_flexion_r	hip_adduction_r	hip_rotation_r	knee_angle_l	knee_angle_r	ankle_angle_l	ankle_angle_r	subtalar_angle_l	subtalar_angle_r	mtj_angle_l	mtj_angle_r	mtp_angle_l	mtp_angle_r	lumbar_extension	lumbar_bending	lumbar_rotation	arm_flex_l	arm_add_l	arm_rot_l	arm_flex_r	arm_add_r	arm_rot_r	elbow_flex_l	elbow_flex_r	pro_sup_l	pro_sup_r	glut_med1_l/activation	glut_med2_l/activation	glut_med3_l/activation	glut_min1_l/activation	glut_min2_l/activation	glut_min3_l/activation	semimem_l/activation	semiten_l/activation	bifemlh_l/activation	bifemsh_l/activation	sar_l/activation	add_long_l/activation	add_brev_l/activation	add_mag1_l/activation	add_mag2_l/activation	add_mag3_l/activation	tfl_l/activation	pect_l/activation	grac_l/activation	glut_max1_l/activation	glut_max2_l/activation	glut_max3_l/activation	iliacus_l/activation	psoas_l/activation	quad_fem_l/activation	gem_l/activation	peri_l/activation	rect_fem_l/activation	vas_med_l/activation	vas_int_l/activation	vas_lat_l/activation	med_gas_l/activation	lat_gas_l/activation	soleus_l/activation	tib_post_l/activation	flex_dig_l/activation	flex_hal_l/activation	tib_ant_l/activation	per_brev_l/activation	per_long_l/activation	per_tert_l/activation	ext_dig_l/activation	ext_hal_l/activation	ercspn_l/activation	intobl_l/activation	extobl_l/activation	glut_med1_r/activation	glut_med2_r/activation	glut_med3_r/activation	glut_min1_r/activation	glut_min2_r/activation	glut_min3_r/activation	semimem_r/activation	semiten_r/activation	bifemlh_r/activation	bifemsh_r/activation	sar_r/activation	add_long_r/activation	add_brev_r/activation	add_mag1_r/activation	add_mag2_r/activation	add_mag3_r/activation	tfl_r/activation	pect_r/activation	grac_r/activation	glut_max1_r/activation	glut_max2_r/activation	glut_max3_r/activation	iliacus_r/activation	psoas_r/activation	quad_fem_r/activation	gem_r/activation	peri_r/activation	rect_fem_r/activation	vas_med_r/activation	vas_int_r/activation	vas_lat_r/activation	med_gas_r/activation	lat_gas_r/activation	soleus_r/activation	tib_post_r/activation	flex_dig_r/activation	flex_hal_r/activation	tib_ant_r/activation	per_brev_r/activation	per_long_r/activation	per_tert_r/activation	ext_dig_r/activation	ext_hal_r/activation	ercspn_r/activation	intobl_r/activation	extobl_r/activation	
          1.14894437	         -2.92752557	         -2.12144606	          5.34538770	          1.43618046	          0.92411060	         -0.00380092	        -11.75838925	         -0.31256110	          8.44148762	         31.11444328	          3.39167773	         -1.92959610	        -17.94569570	        -14.83195337	         -8.77255362	          6.58308507	         11.41766045	         -3.03448223	         21.98015104	          0.14526711	          6.96573264	         -1.00715377	         -1.56947816	          0.75480451	         -1.44961118	          3.82005939	        -13.45466581	         14.25804713	         -5.93075319	        -13.45501475	          5.45561617	         37.09702868	         16.34038574	         86.51662706	         86.51662706	          0.16952517	          0.06259003	          0.05000717	          0.25079389	          0.17945266	          0.09075964	          0.05009421	          0.05001161	          0.05000846	          0.05009628	          0.06701924	          0.05614128	          0.07085690	          0.05006719	          0.05009586	          0.05003051	          0.27526814	          0.08292870	          0.05006799	          0.05007204	          0.05003683	          0.05002824	          0.33248290	          0.52424332	          0.05001009	          0.05004120	          0.05232099	          0.39106278	          0.14382506	          0.14320324	          0.13767821	          0.36700952	          0.46785450	          0.29579272	          0.32707971	          0.20934973	          0.26318508	          0.05000212	          0.05003092	          0.07671545	          0.05001017	          0.05000365	          0.05001037	          0.05000194	          0.05018613	          0.10073762	          0.05957472	          0.05957561	          0.05000725	          0.05957931	          0.05957789	          0.05956798	          0.17609199	          0.11219763	          0.18917322	          0.09367371	          0.05000790	          0.19757473	          0.32117895	          0.12663791	          0.20367602	          0.10494378	          0.05000928	          0.05022068	          0.15063841	          0.05005589	          0.05305327	          0.16360523	          0.08454986	          0.05007994	          0.45853263	          0.31722378	          0.12640995	          0.05001014	          0.05549709	          0.05405900	          0.05232556	          0.06317177	          0.05760761	          0.05758223	          0.05000370	          0.05003556	          0.05003586	          0.43112074	          0.06129215	          0.18558123	          0.16521425	          0.44808951	          0.12867818	          0.05000113	          0.11138600	          0.09620039	
          1.16043381	         -2.93014339	         -2.16849340	          5.52889069	          1.45368408	          0.92323115	         -0.00339849	        -12.35251520	         -0.65584990	          8.40624183	         30.69932631	          3.75854122	         -1.86524377	        -18.52170104	        -15.69424365	         -9.17782912	          5.83451491	         12.51755114	         -3.30931469	         20.15708684	         -0.01972537	          9.35002481	         -1.00781216	         -1.35332634	          0.90934432	         -1.54454368	          3.61982704	        -13.46554701	         14.69642658	         -6.82193020	        -13.45106954	          5.38059016	         37.99092064	         15.91158385	         86.51662706	         86.51662706	          0.14228203	          0.05253546	          0.05101991	          0.21049124	          0.15061614	          0.07618066	          0.05017629	          0.05186006	          0.05405245	          0.05000671	          0.05625640	          0.07992063	          0.05959872	          0.05960003	          0.05959919	          0.05958851	          0.23103580	          0.06967556	          0.05959042	          0.05036329	          0.05946774	          0.05958059	          0.27905129	          0.48907694	          0.05958273	          0.05959055	          0.05957132	          0.32821532	          0.16734472	          0.16457657	          0.15999855	          0.30802691	          0.39266694	          0.24825532	          0.27451592	          0.17571013	          0.22089264	          0.05000495	          0.05438757	          0.09640153	          0.05000493	          0.05000360	          0.05002057	          0.05000998	          0.07098074	          0.08455269	          0.05000081	          0.05000239	          0.09353592	          0.05000476	          0.05000399	          0.05000333	          0.14779236	          0.09416783	          0.15877113	          0.08457258	          0.08461516	          0.16583361	          0.27183450	          0.29867746	          0.17163263	          0.08810722	          0.05002502	          0.07144299	          0.13403999	          0.05001667	          0.08959826	          0.15044918	          0.07099345	          0.08097052	          0.66599280	          0.26624364	          0.10609735	          0.05957905	          0.05000620	          0.05000611	          0.05000441	          0.07098285	          0.07098777	          0.07098252	          0.06013542	          0.05959169	          0.05967392	          0.36183489	          0.05144232	          0.22089709	          0.13866437	          0.37607973	          0.15780468	          0.05000042	          0.09348487	          0.08073989	
          1.17192326	         -2.92895282	         -2.23320788	          5.67803216	          1.47141725	          0.92229719	         -0.00302273	        -12.87941231	         -0.99852484	          8.35975985	         30.23162241	          4.01822564	         -1.74261589	        -19.20827339	        -16.69860794	         -9.49180928	          4.94708431	         13.54501367	         -3.58718101	         17.91012195	         -0.32174702	         12.11083944	         -0.94078478	         -1.12669569	          1.09409965	         -1.63002479	          3.36173699	        -13.47259473	         15.09186869	         -7.71001383	        -13.46365100	          5.39751087	         38.84667877	         15.49007011	         86.51662706	         86.51662706	          0.26538881	          0.07702437	          0.05000452	          0.35358058	          0.17222547	          0.07171100	          0.05005711	          0.05000648	          0.05000517	          0.05957243	          0.09408314	          0.06707803	          0.05002345	          0.05002503	          0.05003210	          0.05001718	          0.19663123	          0.05849883	          0.05002953	          0.05007102	          0.05002862	          0.05001328	          0.25712233	          0.54375771	          0.05000927	          0.05002651	          0.05000626	          0.27546725	          0.14045304	          0.13813005	          0.13428711	          0.25852313	          0.32956197	          0.20835750	          0.23039892	          0.14747591	          0.18539608	          0.05000504	          0.09903030	          0.11494174	          0.13495355	          0.11418766	          0.05005639	          0.06550513	          0.05957322	          0.07096421	          0.28758767	          0.32504506	          0.39094162	          0.46201923	          0.36008911	          0.35216215	          0.12404118	          0.07904383	          0.13325605	          0.07098642	          0.07102001	          0.13918429	          0.22815067	          0.25067993	          0.14406795	          0.15237318	          0.05001556	          0.06000053	          0.11250731	          0.09626661	          0.15823666	          0.18551474	          0.05958661	          0.06795844	          0.55895921	          0.22345933	          0.19593839	          0.05000758	          0.05002581	          0.05003514	          0.05004158	          0.05957517	          0.05957961	          0.05957472	          0.05047159	          0.05002357	          0.05008721	          0.53070625	          0.27244401	          0.18541721	          0.51222537	          0.54431778	          0.38319064	          0.06973962	          0.11339755	          0.06776418	
          1.18341270	         -2.92664912	         -2.30228264	          5.78691300	          1.48910105	          0.92149781	         -0.00261812	        -13.27138154	         -1.32083902	          8.31835304	         29.84472123	          4.24839524	         -1.63375920	        -20.07328908	        -17.75001224	         -9.73672330	          3.69417051	         14.49815376	         -3.84252114	         15.16740430	         -0.42118591	         15.27989685	         -0.90581196	         -0.91578273	          1.29274908	         -1.70604825	          3.09851827	        -13.47774782	         15.47042635	         -8.53387954	        -13.47717410	          5.49154035	         39.61166341	         15.04381313	         86.51662706	         86.51662706	          0.22273864	          0.06466089	          0.05541990	          0.29675781	          0.14454999	          0.06020852	          0.05010607	          0.05001192	          0.05001275	          0.05000797	          0.07896764	          0.14537713	          0.05003612	          0.05005415	          0.05031011	          0.08035083	          0.16503415	          0.05005406	          0.05003249	          0.05022723	          0.05027285	          0.07720399	          0.21580046	          0.55180473	          0.05002520	          0.05033405	          0.06135044	          0.23119626	          0.14305220	          0.14305125	          0.14305248	          0.21697515	          0.27659861	          0.17487172	          0.19337233	          0.12377973	          0.15560448	          0.10877380	          0.12204357	          0.11516061	          0.13493474	          0.13643633	          0.05005877	          0.09261385	          0.05000137	          0.05955966	          0.37841590	          0.44195454	          0.41316863	          0.38778024	          0.34043811	          0.29558795	          0.10410658	          0.06752856	          0.11184069	          0.05958238	          0.05960875	          0.11681693	          0.19148543	          0.21040011	          0.15887775	          0.17702425	          0.05005471	          0.05037263	          0.09443610	          0.24019979	          0.22447532	          0.21668867	          0.05001125	          0.05703753	          0.46912795	          0.18754960	          0.16445439	          0.05000339	          0.20916103	          0.19920630	          0.18720974	          0.05000133	          0.05000537	          0.05000046	          0.05000286	          0.05001530	          0.05001048	          0.63749978	          0.25674982	          0.20238546	          0.66744080	          0.57522605	          0.32843392	          0.08188621	          0.09517308	          0.05687416	
